<?xml version="1.0" encoding="utf-8"?>
<!-- Generator: Adobe Illustrator 19.1.0, SVG Export Plug-In . SVG Version: 6.00 Build 0)  -->
<svg version="1.1" id="Layer_1" xmlns="http://www.w3.org/2000/svg" xmlns:xlink="http://www.w3.org/1999/xlink" x="0px" y="0px"
	 viewBox="20 116.1 389 234" style="enable-background:new 20 116.1 389 234;" xml:space="preserve">
<style type="text/css">
	.st0{fill:none;stroke:#FFFFFF;stroke-width:3;stroke-miterlimit:10;}
</style>
<g>
	<g>
		<path d="M69.6,236.2H59.4l-0.7-16.9c-0.2-5-0.5-11.4-0.4-17.6h-0.2c-1.2,5.7-2.9,12.1-4.2,16.7l-4.7,17H41l-4.2-16.9
			c-1.2-4.5-2.5-11-3.5-16.8h-0.2c-0.2,5.9-0.5,12.6-0.7,17.7l-0.8,16.9h-9.7l3.3-47.4h13.2l3.8,15.3c1.3,5.6,2.7,11.4,3.6,17H46
			c1-5.5,2.3-11.5,3.7-17.1l4-15.3h13L69.6,236.2z"/>
		<path d="M114.6,211.8c0,16.5-8,25-20,25c-13.1,0-19.4-11.3-19.4-24.3c0-13.4,7.4-24.5,20.1-24.5
			C109.1,188.1,114.6,200.3,114.6,211.8z M86.5,212.4c-0.1,9.1,3,15.6,8.5,15.6s8.3-6.5,8.3-15.8c0-8.3-2.8-15.2-8.3-15.2
			C89.2,197,86.5,204.2,86.5,212.4z"/>
		<path d="M145.4,199.1c-1.7-0.9-4.5-2-8.3-2c-4.2,0-6.2,2-6.2,4.4c0,2.6,2,3.9,7.7,6.6c7.5,3.4,10.7,8,10.7,13.9
			c0,8.7-6.6,14.8-18,14.8c-4.8,0-9.5-1.2-11.7-2.5l1.8-9.1c2.5,1.3,6.5,2.5,10.3,2.5c4.5,0,6.7-2,6.7-4.8c0-2.9-2.1-4.5-7.1-6.7
			c-7.5-3.4-11.4-8.1-11.4-13.7c0-8,6.1-14.4,17.1-14.4c4.5,0,8,1,10.3,2.1L145.4,199.1z"/>
		<path d="M186,235.2c-1.7,0.7-5.3,1.6-10,1.6c-15,0-22.1-10.5-22.1-23.6c0-17,11-25,23.3-25c4.8,0,8.1,1,9.4,1.7l-2,8.8
			c-1.6-0.7-3.9-1.4-6.9-1.4c-6.8,0-12.5,4.7-12.5,15.3c0,9.9,4.9,15,12.6,15c2.5,0,5.2-0.5,6.9-1.1L186,235.2z"/>
		<path d="M229.9,211.8c0,16.5-8,25-20,25c-13.1,0-19.4-11.3-19.4-24.3c0-13.4,7.4-24.5,20.1-24.5
			C224.3,188.1,229.9,200.3,229.9,211.8z M201.8,212.4c-0.1,9.1,3,15.6,8.5,15.6s8.3-6.5,8.3-15.8c0-8.3-2.8-15.2-8.3-15.2
			C204.5,197,201.8,204.2,201.8,212.4z"/>
		<path d="M288,188.7l-10.4,47.4h-11.5l-3.2-17.3c-0.8-4.4-1.5-9.3-2.1-15h-0.1c-0.9,5.6-1.6,10.4-2.6,15l-3.6,17.2h-11.4l-9.8-47.4
			h11.5l2.7,18.5c0.8,5.5,1.5,11.4,2.1,16.6h0.1c0.7-5.5,1.8-11,2.9-16.8l3.4-18.4h10.4l3.2,18.8c0.9,5.5,1.7,10.6,2.3,16.3h0.2
			c0.6-5.7,1.4-11,2.2-16.6l2.8-18.4L288,188.7L288,188.7z"/>
		<path d="M52.4,251.5H41.5v38H30.7v-38H20v-9.4h32.4V251.5z"/>
		<path d="M91.8,289.4H80.6l-2.8-11H66.9l-2.6,11H53.4L65.9,242h13.7L91.8,289.4z M76.6,270.2l-2.1-9.5c-0.6-2.8-1.4-7.1-2-9.9h-0.1
			c-0.6,2.9-1.4,7.2-2,9.9l-2.1,9.5H76.6z"/>
		<path d="M125.2,251.5h-10.9v38h-10.8v-38H92.8v-9.4h32.4L125.2,251.5L125.2,251.5z"/>
		<path d="M160.7,251.5h-10.9v38H139v-38h-10.7v-9.4h32.4L160.7,251.5L160.7,251.5z"/>
		<path d="M203.7,265.1c0,16.5-8,25-20,25c-13.1,0-19.4-11.3-19.4-24.3c0-13.4,7.4-24.5,20.1-24.5
			C198.1,241.3,203.7,253.6,203.7,265.1z M175.6,265.6c-0.1,9.1,3,15.6,8.5,15.6s8.3-6.5,8.3-15.8c0-8.3-2.8-15.2-8.3-15.2
			C178.3,250.2,175.6,257.5,175.6,265.6z"/>
		<path d="M247.8,265.1c0,16.5-8,25-20,25c-13.1,0-19.4-11.3-19.4-24.3c0-13.4,7.4-24.5,20.1-24.5
			C242.3,241.3,247.8,253.6,247.8,265.1z M219.7,265.6c-0.1,9.1,3,15.6,8.5,15.6s8.3-6.5,8.3-15.8c0-8.3-2.8-15.2-8.3-15.2
			C222.4,250.2,219.7,257.5,219.7,265.6z"/>
		<path d="M53.2,341.7c-1.7,0.7-5.3,1.6-10,1.6c-15,0-22.1-10.5-22.1-23.6c0-17,11-25,23.3-25c4.8,0,8.1,1,9.4,1.7l-2,8.8
			c-1.6-0.7-3.9-1.4-6.9-1.4c-6.8,0-12.5,4.7-12.5,15.3c0,9.9,4.9,15,12.6,15c2.5,0,5.2-0.5,6.9-1.1L53.2,341.7z"/>
		<path d="M97.1,318.4c0,16.5-8,25-20,25c-13.1,0-19.4-11.3-19.4-24.3c0-13.4,7.4-24.5,20.1-24.5C91.6,294.6,97.1,306.8,97.1,318.4z
			 M69,318.9c-0.1,9.1,3,15.6,8.5,15.6s8.3-6.5,8.3-15.8c0-8.3-2.8-15.2-8.3-15.2C71.7,303.5,69,310.8,69,318.9z"/>
		<path d="M139.1,342.7h-10.7l-8.3-17.2c-2.2-4.5-4.9-10.7-6.6-15.6h-0.2c0.3,5.5,0.6,12.8,0.6,21.2v11.7H104v-47.4h11.5l8.1,17
			c2.1,4.2,4.7,10.3,6.5,15.1h0.1c-0.6-5.5-0.9-12.9-0.9-20.8v-11.3h9.7L139.1,342.7L139.1,342.7z"/>
		<path d="M183.5,295.3l-13.6,47.4h-12.5l-13.2-47.4h11.9l4.5,19.8c1.2,5.3,2.4,10.8,3.3,16.5h0.2c0.9-5.6,2-11.2,3.3-16.5l4.5-19.8
			H183.5z"/>
		<path d="M215.6,342.7h-26.9v-47.4h26v9h-15.2v9.5h14.4v8.8h-14.4v11h16.1L215.6,342.7L215.6,342.7z"/>
		<path d="M258,342.7h-10.7l-8.3-17.2c-2.2-4.5-4.9-10.7-6.6-15.6h-0.2c0.3,5.5,0.6,12.8,0.6,21.2v11.7h-9.7v-47.4h11.5l8.1,17
			c2.1,4.2,4.7,10.3,6.5,15.1h0.1c-0.6-5.5-0.9-12.9-0.9-20.8v-11.3h9.7v47.3H258z"/>
		<path d="M296.2,304.7h-10.9v38h-10.8v-38h-10.7v-9.4h32.4V304.7z"/>
		<path d="M302,295.3h10.8v47.4H302V295.3z"/>
		<path d="M359.2,318.4c0,16.5-8,25-20,25c-13.1,0-19.5-11.3-19.5-24.3c0-13.4,7.4-24.5,20.1-24.5
			C353.7,294.6,359.2,306.8,359.2,318.4z M331.1,318.9c-0.1,9.1,3,15.6,8.5,15.6s8.3-6.5,8.3-15.8c0-8.3-2.8-15.2-8.3-15.2
			C333.8,303.5,331.1,310.8,331.1,318.9z"/>
		<path d="M401.1,342.7h-10.7l-8.3-17.2c-2.2-4.5-4.9-10.7-6.6-15.6h-0.2c0.3,5.5,0.6,12.8,0.6,21.2v11.7h-9.7v-47.4h11.5l8.1,17
			c2.1,4.2,4.7,10.3,6.5,15.1h0.1c-0.6-5.5-0.9-12.9-0.9-20.8v-11.3h9.7v47.3H401.1z"/>
	</g>
	<g>
		<g>
			<path d="M40.3,143c0,0.9-0.2,1.8-0.5,2.5c-0.3,0.8-0.8,1.4-1.4,2c-0.6,0.6-1.4,1-2.4,1.3s-2.1,0.5-3.3,0.5
				c-1.4,0-2.6-0.2-3.6-0.6c-1-0.4-1.7-0.9-2.3-1.5s-1-1.2-1.2-2c-0.2-0.7-0.4-1.4-0.4-2s0.1-1.2,0.2-1.7c0.2-0.5,0.4-1,0.7-1.4
				s0.6-0.8,1-1.2c0.4-0.3,0.7-0.7,1.2-1c-0.9-0.7-1.5-1.4-1.9-2.1c-0.4-0.7-0.6-1.6-0.6-2.7c0-0.8,0.2-1.6,0.5-2.4
				c0.3-0.8,0.8-1.4,1.4-2c0.6-0.6,1.4-1,2.2-1.3c0.9-0.3,1.8-0.5,2.9-0.5c1.2,0,2.3,0.2,3.2,0.5c0.9,0.4,1.6,0.8,2.2,1.4
				c0.6,0.6,1,1.2,1.2,1.9c0.3,0.7,0.4,1.4,0.4,2c0,1-0.3,1.9-0.8,2.7s-1.2,1.5-1.9,2c1.2,0.8,2,1.6,2.5,2.4
				C40,140.9,40.3,141.8,40.3,143z M29.6,143.1c0,0.2,0.1,0.5,0.2,0.8c0.1,0.3,0.3,0.6,0.5,0.8s0.6,0.5,1,0.6
				c0.4,0.2,0.9,0.2,1.4,0.2c1.1,0,1.8-0.3,2.3-0.8s0.7-1.1,0.7-1.7c0-0.5-0.1-0.9-0.3-1.3c-0.2-0.4-0.5-0.7-0.9-1s-0.8-0.5-1.3-0.7
				s-1-0.4-1.6-0.6c-0.6,0.4-1.1,0.9-1.4,1.5C29.8,141.7,29.6,142.3,29.6,143.1z M35.3,133c0-0.2,0-0.5-0.1-0.7
				c-0.1-0.3-0.2-0.5-0.5-0.7c-0.2-0.2-0.5-0.4-0.8-0.6c-0.3-0.2-0.7-0.2-1.2-0.2s-0.8,0.1-1.2,0.2c-0.3,0.1-0.6,0.3-0.8,0.6
				c-0.2,0.2-0.4,0.5-0.5,0.8s-0.2,0.5-0.2,0.8c0,0.7,0.2,1.3,0.7,1.8c0.5,0.6,1.3,1.1,2.5,1.5c0.7-0.4,1.2-0.9,1.5-1.4
				C35.1,134.5,35.3,133.8,35.3,133z"/>
			<path d="M43.7,136.2h8.9v4.1h-8.9C43.7,140.3,43.7,136.2,43.7,136.2z"/>
			<path d="M72,127.6v4.1h-6.4v17.2h-4.8v-17.2h-6.4v-4.1H72z"/>
			<path d="M89.4,127.6h4.8v21.3h-4.8v-9h-8v9h-4.8v-21.3h4.8v8.1h8V127.6z"/>
			<path d="M26.5,153.2h4.8v21.3h-4.8V153.2z"/>
			<path d="M52,174.5c-1.4-2.4-2.9-4.8-4.4-7.2c-1.6-2.4-3.3-4.6-5.1-6.7v13.9h-4.7v-21.3h3.9c0.7,0.7,1.4,1.5,2.2,2.5
				s1.7,2,2.5,3.1s1.7,2.3,2.5,3.5s1.6,2.3,2.4,3.5v-12.5H56v21.3h-4V174.5z"/>
			<path d="M78.2,153.2v4.1h-6.4v17.2H67v-17.2h-6.4v-4.1H78.2z"/>
			<path d="M82.8,174.5v-21.3h14.4v4h-9.6v4.2h8.5v3.9h-8.5v5.1h10.3v4H82.8V174.5z"/>
			<path d="M109.1,152.9c3.2,0,5.6,0.6,7.3,1.7c1.7,1.1,2.5,2.9,2.5,5.3c0,1.5-0.3,2.7-1,3.6c-0.7,0.9-1.7,1.7-3,2.2
				c0.4,0.5,0.9,1.1,1.4,1.8s0.9,1.4,1.4,2.1c0.5,0.7,0.9,1.5,1.3,2.3s0.8,1.6,1.2,2.4H115c-0.4-0.7-0.8-1.4-1.2-2.1
				c-0.4-0.7-0.8-1.4-1.2-2.1c-0.4-0.7-0.8-1.3-1.2-1.9c-0.4-0.6-0.8-1.2-1.2-1.6h-2.4v7.8H103v-21c1-0.2,2.1-0.3,3.2-0.4
				C107.3,153,108.3,152.9,109.1,152.9z M109.4,157c-0.3,0-0.7,0-0.9,0c-0.3,0-0.5,0-0.8,0.1v5.8h1.4c1.8,0,3.1-0.2,3.9-0.7
				c0.8-0.4,1.2-1.2,1.2-2.3c0-1-0.4-1.8-1.2-2.2C112.1,157.2,111,157,109.4,157z"/>
			<path d="M139.2,174.5c-1.4-2.4-2.9-4.8-4.4-7.2c-1.6-2.4-3.3-4.6-5.1-6.7v13.9H125v-21.3h3.9c0.7,0.7,1.4,1.5,2.2,2.5
				s1.7,2,2.5,3.1s1.7,2.3,2.5,3.5s1.6,2.3,2.4,3.5v-12.5h4.8v21.3h-4.1V174.5z"/>
			<path d="M163.9,174.5c-0.2-0.7-0.5-1.5-0.8-2.3s-0.5-1.6-0.8-2.3H154c-0.3,0.8-0.5,1.6-0.8,2.3c-0.3,0.8-0.5,1.5-0.8,2.3h-5
				c0.8-2.3,1.6-4.4,2.3-6.4c0.7-1.9,1.4-3.8,2.1-5.5c0.7-1.7,1.4-3.3,2-4.9c0.7-1.5,1.4-3.1,2.1-4.5h4.5c0.7,1.5,1.4,3,2.1,4.5
				c0.7,1.5,1.4,3.2,2.1,4.9c0.7,1.7,1.4,3.5,2.1,5.5c0.7,1.9,1.5,4.1,2.3,6.4H163.9z M158.2,158c-0.1,0.3-0.3,0.7-0.5,1.3
				c-0.2,0.5-0.4,1.1-0.7,1.8s-0.6,1.5-0.9,2.3c-0.3,0.8-0.7,1.7-1,2.6h6.1c-0.3-0.9-0.6-1.8-0.9-2.6c-0.3-0.8-0.6-1.6-0.9-2.3
				c-0.3-0.7-0.5-1.3-0.7-1.8C158.4,158.7,158.3,158.3,158.2,158z"/>
			<path d="M186.6,153.2v4.1h-6.4v17.2h-4.8v-17.2H169v-4.1H186.6z"/>
			<path d="M191.2,153.2h4.8v21.3h-4.8V153.2z"/>
			<path d="M222.6,163.8c0,1.8-0.3,3.4-0.8,4.8c-0.5,1.4-1.3,2.5-2.2,3.5c-0.9,0.9-2.1,1.6-3.4,2.1c-1.3,0.5-2.7,0.7-4.2,0.7
				s-2.8-0.2-4.1-0.7s-2.4-1.2-3.4-2.1c-1-0.9-1.7-2.1-2.3-3.5s-0.8-3-0.8-4.8s0.3-3.4,0.9-4.8c0.6-1.4,1.3-2.5,2.3-3.5
				c1-0.9,2.1-1.6,3.4-2.1c1.3-0.5,2.6-0.7,4-0.7c1.5,0,2.8,0.2,4.1,0.7s2.4,1.2,3.4,2.1c1,0.9,1.7,2.1,2.3,3.5
				C222.4,160.4,222.6,162,222.6,163.8z M206.4,163.8c0,1,0.1,2,0.4,2.8c0.3,0.8,0.6,1.6,1.1,2.2c0.5,0.6,1.1,1.1,1.8,1.4
				c0.7,0.3,1.5,0.5,2.4,0.5s1.7-0.2,2.4-0.5s1.3-0.8,1.8-1.4c0.5-0.6,0.8-1.3,1.1-2.2c0.3-0.8,0.4-1.8,0.4-2.8s-0.1-2-0.4-2.8
				c-0.3-0.8-0.6-1.6-1.1-2.2c-0.5-0.6-1.1-1.1-1.8-1.4c-0.7-0.3-1.5-0.5-2.4-0.5s-1.7,0.2-2.4,0.5s-1.3,0.8-1.8,1.4
				c-0.5,0.6-0.8,1.3-1.1,2.2C206.5,161.8,206.4,162.8,206.4,163.8z"/>
			<path d="M242.4,174.5c-1.4-2.4-2.9-4.8-4.4-7.2c-1.6-2.4-3.3-4.6-5.1-6.7v13.9h-4.7v-21.3h3.9c0.7,0.7,1.4,1.5,2.2,2.5
				s1.7,2,2.5,3.1s1.7,2.3,2.5,3.5s1.6,2.3,2.4,3.5v-12.5h4.8v21.3h-4.1V174.5z"/>
			<path d="M267.1,174.5c-0.2-0.7-0.5-1.5-0.8-2.3s-0.5-1.6-0.8-2.3h-8.3c-0.3,0.8-0.5,1.6-0.8,2.3c-0.3,0.8-0.5,1.5-0.8,2.3h-5
				c0.8-2.3,1.6-4.4,2.3-6.4c0.7-1.9,1.4-3.8,2.1-5.5s1.4-3.3,2-4.9c0.7-1.5,1.4-3.1,2.1-4.5h4.5c0.7,1.5,1.4,3,2.1,4.5
				s1.4,3.2,2.1,4.9s1.4,3.5,2.1,5.5c0.7,1.9,1.5,4.1,2.3,6.4H267.1z M261.4,158c-0.1,0.3-0.3,0.7-0.5,1.3c-0.2,0.5-0.4,1.1-0.7,1.8
				c-0.3,0.7-0.6,1.5-0.9,2.3s-0.7,1.7-1,2.6h6.1c-0.3-0.9-0.6-1.8-0.9-2.6s-0.6-1.6-0.9-2.3s-0.5-1.3-0.7-1.8
				C261.7,158.7,261.5,158.3,261.4,158z"/>
			<path d="M290.7,170.3v4.1h-14.2v-21.3h4.8v17.2H290.7z"/>
		</g>
	</g>
	<line class="st0" x1="25.6" y1="181.4" x2="290.6" y2="181.4"/>
	<polygon points="99.5,266 104.2,264.2 104.2,267.8 	"/>
	<polygon points="118.4,266 113.7,267.8 113.7,264.2 	"/>
	<polygon points="26.8,266 31.5,264.2 31.5,267.8 	"/>
	<polygon points="45.7,266 41,267.8 41,264.2 	"/>
	<polygon points="270.3,320.7 275,318.9 275,322.5 	"/>
	<polygon points="289.2,320.7 284.5,322.5 284.5,318.9 	"/>
	<polygon points="134.8,266 139.5,264.2 139.5,267.8 	"/>
	<polygon points="153.8,266 149.1,267.8 149.1,264.2 	"/>
</g>
</svg>
