<?xml version="1.0" encoding="utf-8"?>
<!-- Generator: Adobe Illustrator 19.1.0, SVG Export Plug-In . SVG Version: 6.00 Build 0)  -->
<svg version="1.1" id="Layer_1" xmlns="http://www.w3.org/2000/svg" xmlns:xlink="http://www.w3.org/1999/xlink" x="0px" y="0px"
	 viewBox="0 0 218.6 25.4" style="enable-background:new 0 0 218.6 25.4;" xml:space="preserve">
<style type="text/css">
	.st0{fill:#FFFFFF;}
	.st1{opacity:0.8;fill:#FFFFFF;}
	.st2{opacity:0.6;fill:#FFFFFF;}
	.st3{opacity:0.9;fill:#FFFFFF;}
	.st4{opacity:0.85;fill:#FFFFFF;}
	.st0,.st1,.st2,.st3,.st4{
		stroke-width:0;
	}
</style>
<g>
	<path class="st0" d="M36.6,7.6l-1.9,4.3H32L29,5h2.3l2.1,5l2.1-5h2.2l2.1,5l2.1-5h2.3l-3,6.9h-2.7L36.6,7.6z"/>
	<path class="st0" d="M52.1,7.6l-1.9,4.3h-2.6l-3-6.9h2.3l2.1,5L51,5h2.2l2.1,5l2.1-5h2.3l-3,6.9H54L52.1,7.6z"/>
	<path class="st0" d="M67.7,7.6l-1.9,4.3h-2.6l-3-6.9h2.3l2.1,5l2.1-5h2.2l2.1,5l2.1-5h2.3l-3,6.9h-2.7L67.7,7.6z"/>
	<path class="st0" d="M76.4,9.6h2.3v2.3h-2.3V9.6z"/>
	<path class="st0" d="M91.5,4.9h-2.3c0-0.6-0.2-0.9-1.2-0.9H84c-0.7,0-1.1,0.3-1.1,1c0,0.9,0.5,1,1.1,1h4.3c2.1,0,3.2,0.2,3.2,2.9
		c0,2.1-0.9,3-3.2,3h-4.7c-2.5,0-3.2-0.9-3.2-2.8h2.3c0,0.5,0.5,0.9,1.2,0.9h3.9c1,0,1.4-0.3,1.4-1.1c0-0.7-0.2-1.1-1.5-1.1h-3.5
		c-2.7,0-3.6-0.5-3.6-2.9c0-2,1-2.8,3.6-2.8h4C90.5,2.2,91.5,3,91.5,4.9z"/>
	<path class="st0" d="M100.9,11.9h-4.3c-2.6,0-3.6-1-3.6-3.3V5.5C93.1,2.8,94,2,96.7,2h4.3c2.4,0,3.5,0.7,3.5,3.5v3.1
		C104.5,11,103.7,11.9,100.9,11.9z M97.2,10h3.1c1.5,0,1.8-0.3,1.8-1.6V5.7c0-1.4-0.5-1.7-1.9-1.7h-3c-1.5,0-1.9,0.4-1.9,1.8v2.6
		C95.4,9.6,95.8,10,97.2,10z"/>
	<path class="st0" d="M108.3,5.8h1.4l4.3-3.6h3.5l-5.7,4.6l6,5.2h-3.4l-4.5-4.2h-1.4v4.2H106V2.2h2.3V5.8z"/>
	<path class="st0" d="M126.6,11.9h-4.3c-2.6,0-3.6-1-3.6-3.3V5.5c0-2.7,0.9-3.5,3.6-3.5h4.3c2.4,0,3.5,0.7,3.5,3.5v3.1
		C130.1,11,129.3,11.9,126.6,11.9z M122.8,10h3.1c1.5,0,1.8-0.3,1.8-1.6V5.7c0-1.4-0.5-1.7-1.9-1.7h-3c-1.5,0-1.9,0.4-1.9,1.8v2.6
		C121,9.6,121.4,10,122.8,10z"/>
	<path class="st0" d="M131.6,2.2h2.3V10h6v1.9h-8.4V2.2z"/>
	<path class="st0" d="M145.5,2.2l5.9,7.8h0.3V2.2h2.3v9.7h-4l-5.9-7.8h-0.3v7.8h-2.3V2.2H145.5z"/>
	<path class="st0" d="M158.5,11.9h-2.3V2.2h2.3V11.9z"/>
	<path class="st0" d="M162.8,5.8h1.4l4.3-3.6h3.5l-5.7,4.6l6,5.2h-3.4l-4.5-4.2h-1.4v4.2h-2.3V2.2h2.3V5.8z"/>
	<path class="st0" d="M175.9,11.9h-2.3V2.2h2.3V11.9z"/>
	<path class="st0" d="M178,9.6h2.3v2.3H178V9.6z"/>
	<path class="st0" d="M188.6,7.4c0-0.6-0.2-0.8-1-0.8h-2.2c-0.8,0-1.3,0.5-1.3,1.4v1.2c0,0.8,0.5,1.2,1.2,1.2h2.2c0.9,0,1-0.2,1-0.9
		h2.3c0,1.7-0.6,2.5-3.1,2.5h-3.3c-1.8,0-2.8-1.2-2.8-2.6V7.7c0-1.6,1-2.7,2.9-2.7h3.2c2.2,0,3.1,0.7,3.1,2.4H188.6z"/>
	<path class="st0" d="M198.4,4.9c2,0,3,1.2,3,2.8v1.5c0,1.6-1.1,2.7-3,2.7h-3.3c-2,0-3-1.1-3-2.7V7.7c0-1.5,1-2.8,3-2.8H198.4z
		 M197.6,6.5h-1.6c-1.1,0-1.6,0.4-1.6,1.3V9c0,0.9,0.5,1.3,1.6,1.3h1.6c1,0,1.5-0.4,1.5-1.3V7.9C199.1,7.1,198.7,6.5,197.6,6.5z"/>
	<path class="st0" d="M205.4,6c0.5-0.7,1-1.1,2.2-1.1h1.4c1.5,0,2.1,0.6,2.4,1c0.4-0.6,0.9-1,2.6-1h0.8c2.2,0,3.1,1.1,3.1,2.7v4.3
		h-2.3V8.1c0-0.9-0.1-1.5-1.6-1.5h-0.6c-1.2,0-1.8,0.6-1.8,1.6v3.7h-2.3V8.1c0-0.9-0.3-1.6-1.7-1.6h-0.7c-1.1,0-1.6,0.6-1.6,1.6v3.8
		H203V5h2.3V6z"/>
</g>
<g>
	<path class="st0" d="M30.5,19.5h0.9l3.8-3h1.4l-4.2,3.2l4.7,3.5h-1.4l-4.2-3.1h-0.9v3.1h-1v-6.7h1V19.5z"/>
	<path class="st0" d="M40.2,23.3c-2.1,0-2.8-0.5-2.8-2.4c0-2,0.7-2.4,2.8-2.4c2.1,0,2.8,0.5,2.8,2.4C43.1,22.8,42.4,23.3,40.2,23.3z
		 M40.2,19c-1.5,0-1.8,0.3-1.8,1.8c0,1.6,0.4,1.9,1.8,1.9c1.5,0,1.9-0.3,1.9-1.9C42.1,19.3,41.7,19,40.2,19z"/>
	<path class="st0" d="M45.5,20.5h3.4v-1.9h1v4.7h-1V21h-3.4v2.2h-1v-4.7h1V20.5z"/>
	<path class="st0" d="M55.8,18.5v0.6h-3.4v4.1h-1v-4.7H55.8z"/>
	<path class="st0" d="M57.8,25.3h-1v-6.7h1v0.5c0.5-0.5,1.1-0.6,2-0.6c2.3,0,2.6,0.9,2.6,2.4c0,1.4-0.3,2.5-2.5,2.5
		c-0.8,0-1.6-0.1-2.1-0.6V25.3z M57.8,20.9c0,1.3,0,1.8,1.8,1.8c1.6,0,1.8-0.6,1.8-1.8c0-1.3-0.2-1.8-1.9-1.8
		C57.8,19,57.8,19.6,57.8,20.9z"/>
	<path class="st0" d="M64.5,21c0,1.4,0.3,1.7,1.8,1.7c1.5,0,1.8-0.1,1.8-0.8v-0.2h1c0,1.3-1,1.5-2.8,1.5c-2.2,0-2.8-0.5-2.8-2.4
		c0-1.9,0.8-2.4,2.8-2.4c2,0,2.8,0.6,2.8,2.2V21H64.5z M68.1,20.5c0-1.1-0.4-1.4-1.8-1.4c-1.4,0-1.8,0.4-1.8,1.4H68.1z"/>
	<path class="st0" d="M75.8,21.5C75.7,23,75,23.3,73,23.3c-2.1,0-2.8-0.6-2.8-2.4c0-1.8,0.6-2.4,2.7-2.4c1.6,0,2.7,0.3,2.7,1.5v0.2
		h-0.9c0-0.8-0.2-1-1.7-1c-1.4,0-1.8,0.3-1.8,1.8c0,1.5,0.4,1.9,1.8,1.9c1.5,0,1.7-0.2,1.8-1.2H75.8z"/>
	<path class="st0" d="M82.4,21.5c-0.1,1.5-0.8,1.8-2.8,1.8c-2.1,0-2.8-0.6-2.8-2.4c0-1.8,0.6-2.4,2.7-2.4c1.6,0,2.7,0.3,2.7,1.5v0.2
		h-0.9c0-0.8-0.2-1-1.7-1c-1.4,0-1.8,0.3-1.8,1.8c0,1.5,0.4,1.9,1.8,1.9c1.5,0,1.7-0.2,1.8-1.2H82.4z"/>
	<path class="st0" d="M84.7,20.5h3.4v-1.9h1v4.7h-1V21h-3.4v2.2h-1v-4.7h1V20.5z"/>
	<path class="st0" d="M93.3,23.3c-2.1,0-2.8-0.5-2.8-2.4c0-2,0.7-2.4,2.8-2.4c2.1,0,2.8,0.5,2.8,2.4C96.1,22.8,95.4,23.3,93.3,23.3z
		 M93.3,19c-1.5,0-1.8,0.3-1.8,1.8c0,1.6,0.4,1.9,1.8,1.9c1.5,0,1.9-0.3,1.9-1.9C95.2,19.3,94.8,19,93.3,19z"/>
	<path class="st0" d="M103,19.7v0.6h-6v-0.6H103z"/>
	<path class="st0" d="M104.1,18.5h3.3c1.1,0,2,0.2,2,1.2c0,0.4-0.3,0.9-1.2,1c1,0.2,1.3,0.6,1.3,1.1c0,1.1-0.8,1.4-2,1.4h-3.4V18.5z
		 M105.1,20.5h2.3c0.8,0,1.1-0.1,1.1-0.7c0-0.6-0.3-0.7-1.1-0.7h-2.3V20.5z M105.1,22.7h2.3c0.7,0,1.1-0.2,1.1-0.8
		c0-0.7-0.5-0.8-1.1-0.8h-2.3V22.7z"/>
	<path class="st0" d="M112,20.5h2.3c1.1,0,1.9,0.3,1.9,1.4c0,1-0.8,1.4-1.9,1.4H111v-4.7h1V20.5z M112,22.7h2c0.9,0,1.2-0.2,1.2-0.8
		c0-0.7-0.3-0.8-1.3-0.8h-2V22.7z M118.4,23.2h-1v-4.7h1V23.2z"/>
	<path class="st0" d="M125.3,21.5c-0.1,1.5-0.8,1.8-2.8,1.8c-2.1,0-2.8-0.6-2.8-2.4c0-1.8,0.6-2.4,2.7-2.4c1.6,0,2.7,0.3,2.7,1.5
		v0.2h-0.9c0-0.8-0.2-1-1.7-1c-1.4,0-1.8,0.3-1.8,1.8c0,1.5,0.4,1.9,1.8,1.9c1.5,0,1.7-0.2,1.8-1.2H125.3z"/>
	<path class="st0" d="M128.2,19.1h-2.2v-0.6h5.4v0.6h-2.2v4.1h-1V19.1z"/>
	<path class="st0" d="M132.3,19.8c0-1.3,1.1-1.4,2.6-1.4c1.8,0,2.8,0.2,2.8,1.6v3.1h-0.9l0-0.6c-0.5,0.6-0.9,0.7-2.2,0.7
		c-1.6,0-2.5-0.2-2.5-1.5c0-1.2,1-1.4,2.5-1.4c1.5,0,1.9,0.2,2.2,0.5v-0.7c0-1.1-0.3-1.2-1.9-1.2c-1.1,0-1.5,0.1-1.5,0.6v0.1H132.3z
		 M134.5,20.9c-1,0-1.5,0.1-1.5,0.8c0,0.8,0.4,1,1.5,1c1.2,0,2.1,0,2.1-0.9C136.6,21,136.2,20.9,134.5,20.9z"/>
	<path class="st0" d="M139.2,18.5h3.3c1.1,0,2,0.2,2,1.2c0,0.4-0.3,0.9-1.2,1c1,0.2,1.3,0.6,1.3,1.1c0,1.1-0.8,1.4-2,1.4h-3.4V18.5z
		 M140.2,20.5h2.3c0.8,0,1.1-0.1,1.1-0.7c0-0.6-0.3-0.7-1.1-0.7h-2.3V20.5z M140.2,22.7h2.3c0.7,0,1.1-0.2,1.1-0.8
		c0-0.7-0.5-0.8-1.1-0.8h-2.3V22.7z"/>
	<path class="st0" d="M148.7,23.3c-2.1,0-2.8-0.5-2.8-2.4c0-2,0.7-2.4,2.8-2.4c2.1,0,2.8,0.5,2.8,2.4
		C151.6,22.8,150.9,23.3,148.7,23.3z M148.7,19c-1.5,0-1.8,0.3-1.8,1.8c0,1.6,0.4,1.9,1.8,1.9c1.5,0,1.9-0.3,1.9-1.9
		C150.6,19.3,150.2,19,148.7,19z"/>
	<path class="st0" d="M154,18.5v1.2c0,0.8,0.3,0.9,1.4,0.9c0.9,0,1.3-0.1,1.7-0.2v-1.9h1v4.7h-1v-2.4h0c-0.3,0.3-0.6,0.4-1.9,0.4
		c-1.4,0-2.1-0.3-2.1-1.3v-1.3H154z"/>
	<path class="st0" d="M160.6,20.5h3.4v-1.9h1v4.7h-1V21h-3.4v2.2h-1v-4.7h1V20.5z"/>
	<path class="st0" d="M167.6,20.5h2.3c1.1,0,1.9,0.3,1.9,1.4c0,1-0.8,1.4-1.9,1.4h-3.3v-4.7h1V20.5z M167.6,22.7h2
		c0.9,0,1.2-0.2,1.2-0.8c0-0.7-0.3-0.8-1.3-0.8h-2V22.7z M174,23.2h-1v-4.7h1V23.2z"/>
	<path class="st0" d="M176.6,22.4l3.3-3.8h1.2v4.7h-1v-3.8l-3.3,3.8h-1.2v-4.7h1V22.4z M179.8,17.3c0,0.7-0.4,0.9-1.4,0.9
		s-1.5-0.2-1.5-0.9h0.6c0,0.4,0.3,0.4,0.9,0.4c0.6,0,0.8-0.1,0.8-0.4H179.8z"/>
	<path class="st0" d="M186.6,22.7h3.4v-4.1h1v4.1h0.7v1.9h-0.9v-1.3h-5.1v-4.7h1V22.7z"/>
	<path class="st0" d="M193.5,21c0,1.4,0.3,1.7,1.8,1.7c1.5,0,1.8-0.1,1.8-0.8v-0.2h1c0,1.3-1,1.5-2.8,1.5c-2.2,0-2.8-0.5-2.8-2.4
		c0-1.9,0.8-2.4,2.8-2.4c2,0,2.8,0.6,2.8,2.2V21H193.5z M197.1,20.5c0-1.1-0.4-1.4-1.8-1.4c-1.4,0-1.8,0.4-1.8,1.4H197.1z"/>
	<path class="st0" d="M200.5,20.5h3.4v-1.9h1v4.7h-1V21h-3.4v2.2h-1v-4.7h1V20.5z"/>
	<path class="st0" d="M208,19.1h-2.2v-0.6h5.4v0.6H209v4.1h-1V19.1z"/>
	<path class="st0" d="M213.1,25.3h-1v-6.7h1v0.5c0.5-0.5,1.1-0.6,2-0.6c2.3,0,2.6,0.9,2.6,2.4c0,1.4-0.3,2.5-2.5,2.5
		c-0.8,0-1.6-0.1-2.1-0.6V25.3z M213.1,20.9c0,1.3,0,1.8,1.8,1.8c1.6,0,1.8-0.6,1.8-1.8c0-1.3-0.2-1.8-1.9-1.8
		C213.1,19,213.1,19.6,213.1,20.9z"/>
</g>
<path class="st0" d="M16,8.2c0,0.5,0.4,1,1,1h5.2c0.5,0,1-0.4,1-1V3c0-0.5-0.4-1-1-1H17c-0.5,0-1,0.4-1,1V8.2z"/>
<path class="st1" d="M8,8.2c0,0.5,0.4,1,1,1h5.2c0.5,0,1-0.4,1-1V3c0-0.5-0.4-1-1-1H9C8.4,2,8,2.5,8,3V8.2z"/>
<path class="st0" d="M0,8.3c0,0.5,0.4,1,1,1h5.2c0.5,0,1-0.4,1-1V3.1c0-0.5-0.4-1-1-1H1c-0.5,0-1,0.4-1,1V8.3z"/>
<path class="st0" d="M16,16.2c0,0.5,0.4,1,1,1h5.2c0.5,0,1-0.4,1-1V11c0-0.5-0.4-1-1-1H17c-0.5,0-1,0.4-1,1V16.2z"/>
<path class="st0" d="M8,16.2c0,0.5,0.4,1,1,1h5.2c0.5,0,1-0.4,1-1V11c0-0.5-0.4-1-1-1H9c-0.5,0-1,0.4-1,1V16.2z"/>
<path class="st2" d="M0,16.3c0,0.5,0.4,1,1,1h5.2c0.5,0,1-0.4,1-1V11c0-0.5-0.4-1-1-1H1c-0.5,0-1,0.4-1,1V16.3z"/>
<path class="st1" d="M16,24.2c0,0.5,0.4,1,1,1h5.2c0.5,0,1-0.4,1-1V19c0-0.5-0.4-1-1-1H17c-0.5,0-1,0.4-1,1V24.2z"/>
<path class="st3" d="M8,24.2c0,0.5,0.4,1,1,1h5.2c0.5,0,1-0.4,1-1V19c0-0.5-0.4-1-1-1H9c-0.5,0-1,0.4-1,1V24.2z"/>
<path class="st4" d="M0,24.2c0,0.5,0.4,1,1,1h5.2c0.5,0,1-0.4,1-1V19c0-0.5-0.4-1-1-1H1c-0.5,0-1,0.4-1,1V24.2z"/>
</svg>
